<svg width="19" height="25" viewBox="0 0 19 25" fill="none" xmlns="http://www.w3.org/2000/svg">
<path d="M9.5 14.75C11.9755 14.75 14.1681 15.3461 15.708 16.2578C17.2699 17.1826 18 18.3175 18 19.375C18 21.0205 17.9462 21.9203 17.1621 22.5928C16.7409 22.9538 16.0276 23.3151 14.7842 23.5801C13.5433 23.8445 11.8387 24 9.5 24C7.16127 24 5.45667 23.8445 4.21582 23.5801C2.97243 23.3151 2.25909 22.9538 1.83789 22.5928C1.05383 21.9203 1 21.0205 1 19.375C1 18.3175 1.73008 17.1826 3.29199 16.2578C4.83188 15.3461 7.02447 14.75 9.5 14.75ZM9.5 1C11.5234 1 13.25 2.74191 13.25 5C13.25 7.25809 11.5234 9 9.5 9C7.47665 9 5.75 7.25809 5.75 5C5.75 2.74191 7.47665 1 9.5 1Z" stroke="#8C3117" stroke-width="2"/>
</svg>
