<svg width="22" height="25" viewBox="0 0 22 25" fill="none" xmlns="http://www.w3.org/2000/svg">
<path fill-rule="evenodd" clip-rule="evenodd" d="M0.57112 7.27843C6.55651e-08 8.4641 0 9.89436 0 12.7549V14.6562C0 19.5323 1.3113e-07 21.9704 1.28873 23.4851C2.57747 25 4.65164 25 8.8 25H13.2C17.3483 25 19.4226 25 20.7112 23.4851C22 21.9704 22 19.5323 22 14.6562V12.7549C22 9.89436 22 8.4641 21.4289 7.27843C20.8578 6.09276 19.8144 5.35689 17.7276 3.88515L15.5276 2.33359C13.3217 0.777862 12.2187 0 11 0C9.78131 0 8.67833 0.777862 6.47243 2.33359L4.27243 3.88516C2.18564 5.35689 1.14224 6.09276 0.57112 7.27843ZM7.7 19.0625C7.24437 19.0625 6.875 19.4823 6.875 20C6.875 20.5177 7.24437 20.9375 7.7 20.9375H14.3C14.7556 20.9375 15.125 20.5177 15.125 20C15.125 19.4823 14.7556 19.0625 14.3 19.0625H7.7Z" fill="#8C3117"/>
</svg>
