<svg width="36" height="35" viewBox="0 0 36 35" fill="none" xmlns="http://www.w3.org/2000/svg">
<path d="M33.0121 3.19003C32.8271 2.37628 31.7915 2.08038 31.1997 2.67219L29.3502 4.52161C22.4334 -1.69243 11.8178 -1.50749 5.15987 5.11342C-1.71996 11.9933 -1.71996 23.1637 5.15987 30.0436C5.3818 30.2655 5.60373 30.4504 5.78867 30.6724C6.15856 31.0053 6.60242 31.1532 7.04628 31.1532C7.56411 31.1532 8.08195 30.9313 8.45183 30.5244C9.15461 29.7477 9.08064 28.564 8.30388 27.8612L7.78604 27.3804C2.42274 21.9801 2.42274 13.1769 7.82303 7.77658C13.0014 2.59821 21.2498 2.45026 26.6871 7.18477L24.6527 9.21913C24.0609 9.81094 24.3568 10.8466 25.1706 11.0316L33.8258 13.1399C34.6026 13.3248 35.3424 12.6221 35.1574 11.8083L33.0121 3.19003Z" fill="#8C3117"/>
<path d="M23.802 19.28L19.4743 16.5428V9.626C19.4743 8.59033 18.6236 7.73959 17.5879 7.73959C16.5523 7.73959 15.7015 8.59033 15.7015 9.626V17.5415C15.7015 18.1703 16.0344 18.7991 16.5893 19.132L21.7676 22.424C22.0635 22.6089 22.4334 22.7199 22.7663 22.7199C23.3951 22.7199 23.9869 22.424 24.3568 21.8321C24.9486 20.9814 24.6897 19.8348 23.802 19.28Z" fill="#8C3117"/>
<path d="M14.0001 30.9313L13.2973 30.7094C12.2986 30.3765 11.226 30.9313 10.9301 31.893C10.5972 32.8917 11.152 33.9643 12.1137 34.2602C12.4096 34.3712 12.7055 34.4452 13.0014 34.5192C13.1494 34.5561 13.3343 34.5931 13.4823 34.5931C14.296 34.5931 15.0728 34.0383 15.2947 33.1876C15.5906 32.2259 14.9988 31.1902 14.0001 30.9313Z" fill="#8C3117"/>
<path d="M20.3991 31.1162L19.6593 31.2272C18.6237 31.3751 17.9209 32.3368 18.0688 33.3725C18.2168 34.2972 19.0305 35 19.9183 35C19.9922 35 20.1032 35 20.2142 34.963C20.5101 34.926 20.843 34.852 21.1389 34.8151C22.1746 34.5931 22.8034 33.6314 22.6184 32.5958C22.3965 31.5971 21.3978 30.9313 20.3991 31.1162Z" fill="#8C3117"/>
<path d="M26.1693 28.4531L25.5775 28.8969C24.7268 29.4887 24.5418 30.6724 25.1336 31.5231C25.5035 32.0409 26.0953 32.3368 26.6872 32.3368C27.057 32.3368 27.4269 32.2259 27.7598 32.0039C28.0187 31.819 28.2776 31.6341 28.4996 31.4491C29.3133 30.8203 29.4613 29.5997 28.7955 28.786C28.2037 27.9352 26.9831 27.8243 26.1693 28.4531Z" fill="#8C3117"/>
</svg>
