<svg width="25" height="25" viewBox="0 0 25 25" fill="none" xmlns="http://www.w3.org/2000/svg">
<path d="M0.823762 0.823762C0 1.64752 0 2.97335 0 5.625C0 8.27665 0 9.60248 0.823762 10.4262C1.64752 11.25 2.97335 11.25 5.625 11.25C8.27665 11.25 9.60248 11.25 10.4262 10.4262C11.25 9.60248 11.25 8.27665 11.25 5.625C11.25 2.97335 11.25 1.64752 10.4262 0.823762C9.60248 0 8.27665 0 5.625 0C2.97335 0 1.64752 0 0.823762 0.823762Z" fill="#8C3117"/>
<path d="M14.5738 14.5738C13.75 15.3975 13.75 16.7234 13.75 19.375C13.75 22.0266 13.75 23.3525 14.5738 24.1763C15.3975 25 16.7234 25 19.375 25C22.0266 25 23.3525 25 24.1763 24.1763C25 23.3525 25 22.0266 25 19.375C25 16.7234 25 15.3975 24.1763 14.5738C23.3525 13.75 22.0266 13.75 19.375 13.75C16.7234 13.75 15.3975 13.75 14.5738 14.5738Z" fill="#8C3117"/>
<path d="M0 19.375C0 16.7234 0 15.3975 0.823762 14.5738C1.64752 13.75 2.97335 13.75 5.625 13.75C8.27665 13.75 9.60248 13.75 10.4262 14.5738C11.25 15.3975 11.25 16.7234 11.25 19.375C11.25 22.0266 11.25 23.3525 10.4262 24.1763C9.60248 25 8.27665 25 5.625 25C2.97335 25 1.64752 25 0.823762 24.1763C0 23.3525 0 22.0266 0 19.375Z" fill="#8C3117"/>
<path d="M14.5738 0.823762C13.75 1.64752 13.75 2.97335 13.75 5.625C13.75 8.27665 13.75 9.60248 14.5738 10.4262C15.3975 11.25 16.7234 11.25 19.375 11.25C22.0266 11.25 23.3525 11.25 24.1763 10.4262C25 9.60248 25 8.27665 25 5.625C25 2.97335 25 1.64752 24.1763 0.823762C23.3525 0 22.0266 0 19.375 0C16.7234 0 15.3975 0 14.5738 0.823762Z" fill="#8C3117"/>
</svg>
