<svg width="27" height="33" viewBox="0 0 27 33" fill="none" xmlns="http://www.w3.org/2000/svg">
<path fill-rule="evenodd" clip-rule="evenodd" d="M1.22727 0C0.549465 0 0 0.551717 0 1.2323C0 1.91288 0.549465 2.46459 1.22727 2.46459H2.86337V4.96435C2.86337 8.63529 4.60858 12.0857 7.56063 14.2513L8.82761 15.1807C9.72232 15.8371 9.72232 17.1778 8.82761 17.8341L7.56063 18.7636C4.60858 20.9291 2.86337 24.3796 2.86337 28.0505V30.5354H1.22727C0.549465 30.5354 0 31.0871 0 31.7677C0 32.4483 0.549465 33 1.22727 33H25.7727C26.4505 33 27 32.4483 27 31.7677C27 31.0871 26.4505 30.5354 25.7727 30.5354H24.1361V28.0505C24.1361 24.3796 22.3909 20.9291 19.4389 18.7636L18.1719 17.8341C17.2772 17.1778 17.2772 15.8371 18.1719 15.1807L19.4389 14.2513C22.3909 12.0857 24.1361 8.63529 24.1361 4.96435V2.46459H25.7727C26.4505 2.46459 27 1.91288 27 1.2323C27 0.551721 26.4505 3.76067e-06 25.7727 3.76067e-06L1.22727 0ZM10.2756 13.1907L9.00861 12.2612C6.68917 10.5597 5.31792 7.84868 5.31792 4.96435V2.54141H21.6816V4.96435C21.6816 7.84868 20.3104 10.5597 17.9909 12.2612L16.7239 13.1907C14.4871 14.8315 14.4871 18.1833 16.7239 19.8242L17.9909 20.7536C20.3103 22.4551 21.6816 25.1662 21.6816 28.0505V30.4735H5.31792V28.0505C5.31792 25.1662 6.68913 22.4551 9.00861 20.7536L10.2756 19.8242C12.5124 18.1833 12.5124 14.8315 10.2756 13.1907ZM12.5673 20.7755C12.4468 20.7858 12.3264 20.7985 12.2063 20.8136C9.12203 21.2007 6.80753 23.8333 6.80753 26.9543V28.885C6.80753 29.3387 7.17383 29.7065 7.6257 29.7065H19.0803C19.5321 29.7065 19.8984 29.3387 19.8984 28.885V26.9543C19.8984 23.8333 17.5839 21.2007 14.4996 20.8136C14.3794 20.7985 14.2589 20.7858 14.1382 20.7755V13.7618C14.2297 13.7114 14.3176 13.6517 14.4003 13.5824L17.3498 11.1145C17.9277 10.6309 18.2618 9.91459 18.2618 9.15929C18.2618 8.45646 17.6944 7.88673 16.9944 7.88673H9.71101C9.01105 7.88673 8.44364 8.45646 8.44364 9.15929C8.44364 9.91459 8.77777 10.6309 9.35567 11.1145L12.3052 13.5824C12.3879 13.6517 12.4757 13.7114 12.5673 13.7618V20.7755Z" fill="#8C3117"/>
</svg>
