<svg width="22" height="25" viewBox="0 0 22 25" fill="none" xmlns="http://www.w3.org/2000/svg">
<path d="M11 1C11.3756 1 11.7851 1.1136 12.4102 1.45898C12.8935 1.72613 13.4508 2.09909 14.1719 2.60254L14.9512 3.15039L17.1514 4.70215C19.1838 6.13554 19.9922 6.73622 20.4424 7.54688L20.5283 7.71191C20.741 8.15338 20.8657 8.67412 20.9316 9.4707C20.9988 10.2834 21 11.3083 21 12.7549V14.6562C21 17.1184 20.9988 18.8795 20.8457 20.2178C20.7132 21.3759 20.4769 22.1004 20.1133 22.624L19.9492 22.8369C19.5111 23.3519 18.9267 23.6566 17.8721 23.8232C16.7699 23.9974 15.3073 24 13.2002 24H8.7998C6.69267 24 5.23007 23.9974 4.12793 23.8232C3.20532 23.6774 2.64251 23.4259 2.22266 23.0205L2.05078 22.8369C1.59284 22.2987 1.30573 21.5415 1.1543 20.2178C1.00123 18.8795 1 17.1184 1 14.6562V12.7549L1.00879 10.875C1.01739 10.3365 1.03476 9.87698 1.06836 9.4707C1.12602 8.77358 1.22906 8.28809 1.39648 7.88184L1.47168 7.71191C1.85088 6.92484 2.49203 6.38119 4.09863 5.2334L4.84863 4.70215L7.04883 3.15039C8.16968 2.3599 8.94531 1.8152 9.58984 1.45898C10.2148 1.11361 10.6244 1 11 1ZM7.7002 18.0625C6.57599 18.0625 5.875 19.0539 5.875 20C5.875 20.9461 6.57599 21.9375 7.7002 21.9375H14.2998C15.424 21.9375 16.125 20.9461 16.125 20C16.125 19.0539 15.424 18.0625 14.2998 18.0625H7.7002Z" stroke="#8C3117" stroke-width="2"/>
</svg>
