<svg width="25" height="25" viewBox="0 0 25 25" fill="none" xmlns="http://www.w3.org/2000/svg">
<path d="M5.625 14.75C6.97909 14.75 7.89436 14.7518 8.57812 14.8438C9.15102 14.9208 9.44525 15.0487 9.64062 15.21L9.71875 15.2812C9.91383 15.4763 10.0682 15.767 10.1562 16.4219C10.2482 17.1056 10.25 18.0209 10.25 19.375C10.25 20.7291 10.2482 21.6444 10.1562 22.3281C10.0792 22.901 9.95131 23.1953 9.79004 23.3906L9.71875 23.4688C9.52366 23.6638 9.23294 23.8182 8.57812 23.9062C7.89436 23.9982 6.97909 24 5.625 24C4.27091 24 3.35564 23.9982 2.67188 23.9062C2.09897 23.8292 1.80475 23.7013 1.60938 23.54L1.53125 23.4688C1.33617 23.2737 1.18182 22.983 1.09375 22.3281C1.00182 21.6444 1 20.7291 1 19.375C1 18.0209 1.00182 17.1056 1.09375 16.4219C1.18182 15.767 1.33617 15.4763 1.53125 15.2812C1.72634 15.0862 2.01705 14.9318 2.67188 14.8438C3.35564 14.7518 4.27091 14.75 5.625 14.75ZM19.375 14.75C20.7291 14.75 21.6444 14.7518 22.3281 14.8438C22.901 14.9208 23.1953 15.0487 23.3906 15.21L23.4688 15.2812C23.6638 15.4763 23.8182 15.767 23.9062 16.4219C23.9982 17.1056 24 18.0209 24 19.375C24 20.7291 23.9982 21.6444 23.9062 22.3281C23.8292 22.901 23.7013 23.1953 23.54 23.3906L23.4688 23.4688C23.2737 23.6638 22.983 23.8182 22.3281 23.9062C21.6444 23.9982 20.7291 24 19.375 24C18.0209 24 17.1056 23.9982 16.4219 23.9062C15.849 23.8292 15.5547 23.7013 15.3594 23.54L15.2812 23.4688C15.0862 23.2737 14.9318 22.983 14.8438 22.3281C14.7518 21.6444 14.75 20.7291 14.75 19.375C14.75 18.0209 14.7518 17.1056 14.8438 16.4219C14.9318 15.767 15.0862 15.4763 15.2812 15.2812C15.4763 15.0862 15.767 14.9318 16.4219 14.8438C17.1056 14.7518 18.0209 14.75 19.375 14.75ZM5.625 1C6.97909 1 7.89436 1.00182 8.57812 1.09375C9.15102 1.1708 9.44525 1.29868 9.64062 1.45996L9.71875 1.53125C9.91383 1.72634 10.0682 2.01705 10.1562 2.67188C10.2482 3.35564 10.25 4.27091 10.25 5.625C10.25 6.97909 10.2482 7.89436 10.1562 8.57812C10.0792 9.15102 9.95131 9.44525 9.79004 9.64062L9.71875 9.71875C9.52366 9.91383 9.23294 10.0682 8.57812 10.1562C7.89436 10.2482 6.97909 10.25 5.625 10.25C4.27091 10.25 3.35564 10.2482 2.67188 10.1562C2.09897 10.0792 1.80475 9.95131 1.60938 9.79004L1.53125 9.71875C1.33616 9.52366 1.18182 9.23293 1.09375 8.57812C1.00182 7.89436 1 6.97909 1 5.625C1 4.27091 1.00182 3.35564 1.09375 2.67188C1.18182 2.01706 1.33616 1.72634 1.53125 1.53125C1.72634 1.33616 2.01706 1.18182 2.67188 1.09375C3.35564 1.00182 4.27091 1 5.625 1ZM19.375 1C20.7291 1 21.6444 1.00182 22.3281 1.09375C22.901 1.1708 23.1953 1.29869 23.3906 1.45996L23.4688 1.53125C23.6638 1.72634 23.8182 2.01705 23.9062 2.67188C23.9982 3.35564 24 4.27091 24 5.625C24 6.97909 23.9982 7.89436 23.9062 8.57812C23.8292 9.15102 23.7013 9.44525 23.54 9.64062L23.4688 9.71875C23.2737 9.91383 22.983 10.0682 22.3281 10.1562C21.6444 10.2482 20.7291 10.25 19.375 10.25C18.0209 10.25 17.1056 10.2482 16.4219 10.1562C15.849 10.0792 15.5547 9.95131 15.3594 9.79004L15.2812 9.71875C15.0862 9.52366 14.9318 9.23294 14.8438 8.57812C14.7518 7.89436 14.75 6.97909 14.75 5.625C14.75 4.27091 14.7518 3.35564 14.8438 2.67188C14.9318 2.01705 15.0862 1.72634 15.2812 1.53125C15.4763 1.33617 15.767 1.18182 16.4219 1.09375C17.1056 1.00182 18.0209 1 19.375 1Z" stroke="#8C3117" stroke-width="2"/>
</svg>
